<?xml version="1.0" encoding="utf-8"?>
<!-- Svg Vector Icons : http://www.onlinewebfonts.com/icon -->
<!DOCTYPE svg PUBLIC "-//W3C//DTD SVG 1.1//EN" "http://www.w3.org/Graphics/SVG/1.1/DTD/svg11.dtd">
<svg version="1.1" xmlns="http://www.w3.org/2000/svg" xmlns:xlink="http://www.w3.org/1999/xlink" x="0px" y="0px" viewBox="0 0 1000 1000" enable-background="new 0 0 1000 1000" xml:space="preserve">
<metadata> Svg Vector Icons : http://www.onlinewebfonts.com/icon </metadata>
<g><g transform="translate(0.000000,511.000000) scale(0.100000,-0.100000)"><path d="M4465.2,4997.6c-6.1-6.1-6.1-49,0-93.9c10.2-81.6,8.2-83.7-38.8-67.4c-26.5,8.2-83.7,14.3-124.5,12.2c-40.8-2-79.6,6.1-87.8,18.4c-24.5,38.8-91.9,20.4-112.3-28.6c-10.2-28.6-46.9-71.4-79.6-95.9c-34.7-26.5-63.3-59.2-63.3-73.5c0-38.8-79.6-73.5-134.7-59.2c-28.6,8.2-61.2,6.1-75.5-2c-14.3-8.2-83.7-16.3-155.1-16.3c-147,0-173.5-24.5-83.7-75.5c61.2-34.7,81.7-102.1,40.8-128.6c-40.8-24.5-18.4-49,65.3-71.4c128.6-34.7,183.7-79.6,177.6-140.9c-4.1-38.8,18.4-77.6,81.6-142.9c83.7-85.7,87.8-93.9,75.5-183.7c-14.3-104.1-67.4-165.3-149-165.3c-38.8,0-49-8.2-38.8-32.7c6.1-18.4,12.2-36.7,12.2-40.8c0-4.1,14.3-8.1,32.7-8.1c26.5,0,30.6-14.3,20.4-69.4c-8.2-40.8-4.1-75.5,8.2-83.7c36.7-22.5,22.5-71.4-20.4-71.4c-22.5,0-46.9-14.3-53.1-30.6c-8.2-16.3-24.5-30.6-38.8-30.6c-16.3,0-30.6-24.5-34.7-55.1c-4.1-32.7-14.3-57.1-26.5-59.2c-10.2,0-36.7-8.2-57.1-16.3c-22.5-10.2-53.1-4.1-85.7,16.3c-69.4,47-106.1,40.8-120.4-18.4c-8.2-28.6-24.5-51-38.8-51c-22.5,0-67.4-85.7-102.1-187.8c-16.3-44.9-73.5-49-87.8-6.1c-18.4,46.9-55.1,36.7-126.6-36.7c-40.8-40.8-65.3-87.8-65.3-120.4c0-30.6-14.3-63.3-32.7-73.5c-28.6-16.3-26.5-24.5,20.4-75.5c30.6-32.7,59.2-79.6,65.3-106.1c8.2-26.5,24.5-46.9,40.8-46.9c16.3,0,28.6-14.3,28.6-30.6c0-16.3,16.3-30.6,36.7-30.6c20.4,0,42.9-6.1,51-12.3c22.5-22.4-10.2-69.4-46.9-69.4c-20.4,0-40.8-12.3-46.9-28.6c-6.1-14.3-44.9-32.6-85.7-38.8c-73.5-12.3-234.7-140.9-234.7-189.8c0-12.2-22.5-32.7-49-46.9c-51-28.6-104.1-12.2-155.1,46.9c-34.7,42.9-73.5,40.8-187.8-16.3c-61.2-28.6-118.4-42.9-159.2-36.7c-51,8.2-65.3,2-75.5-32.7c-14.3-55.1-73.5-75.5-124.5-42.9c-34.7,22.5-55.1,18.4-132.7-22.4c-124.5-65.3-153.1-114.3-98-171.5c73.5-79.6,75.5-142.9,2-234.7c-69.4-85.7-124.5-114.3-251.1-132.7c-69.4-8.2-87.8-2-149,59.2c-79.6,81.6-116.3,89.8-142.9,30.6c-18.4-38.8-18.4-38.8-106.1,0c-49,22.4-93.9,57.2-100,79.6c-8.2,32.7-28.6,38.8-142.9,38.8c-167.4,0-226.6-44.9-279.6-212.3l-36.7-116.3l46.9-36.8l46.9-34.7l-55.1-26.5c-30.6-14.3-55.1-32.7-55.1-42.9c0-20.4,6.1-20.4,73.5,4.1c51,20.4,53.1,18.4,44.9-30.6c-8.2-38.8-2-51,26.5-51c20.4,0,49-20.4,61.2-44.9c30.6-57.1,93.9-108.2,218.4-173.5c122.5-65.3,120.4-59.2,73.5-114.3c-138.8-161.3-165.3-247-110.2-375.6c22.5-51,24.5-85.7,6.1-149c-10.2-44.9-14.3-87.8-4.1-93.9c10.2-6.1,32.7-42.9,51-81.7C1038-36,1085-74.8,1215.6-148.3c112.3-63.3,171.5-108.2,171.5-130.6c0-20.4,14.3-49,30.6-67.4c16.3-16.3,30.6-42.9,30.6-59.2c0-16.3,18.4-53.1,42.9-83.7c26.5-32.7,36.7-67.4,28.6-93.9c-6.1-22.5-4.1-40.8,6.1-40.8c34.7,0,147-167.4,147-216.4c0-26.5-12.2-55.1-28.6-63.3c-55.1-30.6-42.9-79.6,34.7-151.1c59.2-55.1,81.7-93.9,89.8-157.2c6.1-49,2-95.9-10.2-112.3c-14.3-16.3-14.3-36.8-4.1-55.1c12.2-16.3,20.4-49,20.4-73.5c0-57.1,75.5-93.9,153.1-73.5c42.9,12.2,75.5,10.2,106.1-12.2c40.8-24.5,51-24.5,108.2,16.3c73.5,53.1,132.7,40.8,159.2-36.7c14.3-40.8,44.9-63.3,122.5-91.9c77.6-26.6,104.1-47,114.3-85.7c8.2-32.7,26.5-51,53.1-51c20.4,0,42.9-8.2,49-18.4c6.1-8.2,38.8-22.4,73.5-30.6c73.5-14.3,204.1-108.2,204.1-144.9c0-14.3,22.5-42.9,51-63.3c28.6-20.4,51-49,51-63.3c0-14.3,26.5-53.1,61.2-87.8c32.7-32.7,69.4-100,81.6-147c12.3-49,36.7-128.6,57.1-179.6c18.4-51,34.7-102.1,34.7-116.3c0-12.2,18.4-40.8,38.8-63.3c20.4-24.5,30.6-51,24.5-61.2c-6.1-12.3,4.1-49,22.5-83.7c28.6-49,32.7-71.4,14.3-120.4c-14.3-36.7-16.3-73.5-4.1-91.9c12.2-22.5,8.2-49-12.2-79.6c-26.5-42.9-26.5-55.1,6.1-128.6c20.4-44.9,67.4-108.2,102.1-140.8c44.9-42.9,63.3-79.6,63.3-126.5c0-34.7,14.3-91.9,30.6-122.5c16.3-32.7,30.6-81.6,30.6-108.2c0-26.5,20.4-79.6,42.9-118.4c79.6-128.6,20.4-373.5-91.9-373.5c-16.3,0-36.7-18.4-42.9-40.8c-6.1-22.4-26.5-40.8-44.9-40.8c-22.4,0-26.5-10.2-16.3-34.7c8.2-20.4,36.7-95.9,63.3-167.4c26.5-71.4,73.5-157.2,104.1-189.8l57.1-59.2l77.6,83.7c42.9,44.9,91.9,81.6,108.2,81.6c32.7,0,110.2-71.4,110.2-102.1c0-34.7,30.6-22.4,149,55.1c67.4,42.9,118.4,93.9,126.6,122.5c6.1,26.5,20.4,46.9,30.6,46.9s44.9,36.7,73.5,81.7c28.6,44.9,71.4,85.7,93.9,93.9c38.8,12.3,34.7,18.4-32.7,83.7c-81.6,81.7-87.8,100-40.8,151c30.6,34.7,28.6,44.9-20.4,132.7c-44.9,79.6-53.1,116.4-49,240.9c2,100,14.3,161.2,38.8,198c22.5,32.7,28.6,61.2,18.4,79.6c-12.2,20.4,2,49,46.9,95.9c36.7,36.7,69.4,85.7,75.5,110.2c10.2,38.8,26.5,47,112.3,51c81.6,2.1,108.2,14.3,144.9,59.2c42.9,53.1,53.1,57.1,149,44.9c102.1-12.3,108.2-10.2,175.5,63.3c38.8,40.8,71.4,85.7,71.4,98c0,42.9,120.4,110.2,198,110.2c42.9,0,126.6,22.4,185.8,51c61.2,28.6,118.4,51,130.6,51c10.2,0,71.4,55.1,136.8,122.5c65.3,67.4,126.5,122.5,138.8,122.5c10.2,0,44.9,26.5,75.5,59.2c59.2,61.2,126.5,91.9,144.9,63.3c6.1-8.2,44.9-22.5,85.7-28.6c126.5-22.4,149-32.6,151-69.4c0-18.4,22.5-71.4,49-116.3c26.5-44.9,67.3-118.4,87.8-163.3c22.5-44.9,55.1-95.9,73.5-110.2c26.5-22.5,30.6-49,22.4-112.3c-12.2-98,14.3-140.8,102.1-165.3c79.6-22.5,155.1-14.3,195.9,22.4c16.3,16.3,47,28.6,63.3,28.6c18.4,0,36.7,18.4,42.9,42.9c6.1,24.5,20.4,36.8,34.7,28.6c12.2-8.2,18.4-26.5,12.2-42.8c-12.2-32.7,40.8-38.8,59.2-8.2c8.2,12.2-12.2,75.5-44.9,138.8l-57.1,118.4l44.9,49c26.5,28.6,47,71.4,47,98s18.4,73.5,40.8,102.1c24.5,28.6,40.8,71.4,38.8,93.9c-4.1,75.5,2.1,91.9,30.6,81.7c18.4-6.1,34.7,6.1,42.9,30.6c6.1,22.5,38.8,59.2,69.4,81.6c32.7,22.5,69.4,69.4,81.7,102.1c18.4,40.8,44.9,63.3,89.8,71.4c55.1,10.2,71.5,4.1,112.3-49c59.2-75.5,126.6-81.7,126.6-14.3c0,26.5-12.2,65.3-28.6,87.8c-26.5,34.7-26.5,44.9,0,85.7c18.4,26.5,26.5,61.2,20.4,77.6c-12.2,34.7,30.6,38.8,63.3,6.1c26.5-26.5,67.4-8.2,67.4,34.7c0,36.7,49,36.7,81.6,0c12.2-16.3,49-32.7,77.6-36.7c47-4.1,61.3-22.4,87.8-108.2c36.8-106.1,63.3-130.6,108.2-93.9c14.3,12.3,42.9,18.4,61.2,10.2c18.4-6.1,32.7-2,32.7,10.2c0,12.3,12.2,22.5,28.6,22.5c14.3,0,42.9,22.5,61.2,51c34.7,55.1,26.5,95.9-47,204.1c-24.5,34.7-42.9,81.7-42.9,108.2c0,51-51,61.2-69.4,14.3c-18.4-51-46.9-34.7-91.9,57.2c-46.9,98-55.1,167.4-20.4,189.8c14.3,8.2,18.4,42.9,10.2,91.9c-14.3,89.8,14.3,120.4,67.4,69.4c49-42.9,144.9-22.5,144.9,32.7c0,22.5,22.5,51,53.1,63.3c44.9,20.4,57.2,20.4,79.6-12.2c16.3-20.4,42.9-32.7,63.3-28.6c34.7,6.1,106.1,106.1,108.2,155.1c2,12.2,22.4,44.9,46.9,69.4c40.8,40.8,42.9,46.9,10.2,53.1c-18.4,4.1-34.7,24.5-34.7,44.9c0,22.5-18.4,69.4-40.8,106.1c-53.1,87.8-51,132.7,6.1,161.3c57.1,30.6,177.6,163.3,177.6,196c0,14.3,28.6,44.9,61.3,71.4c34.7,24.5,61.2,61.2,61.2,81.7c0,42.8,22.4,46.9,57.1,12.2c18.4-18.4,24.5-14.3,24.5,18.4c0,22.5-14.3,53.1-30.6,67.4c-16.3,14.3-30.6,38.8-30.6,53.1c0,49,79.6,110.2,142.9,110.2c34.7,0,61.2,10.2,61.2,20.4c0,12.2,18.4,20.4,42.9,20.4c32.7,0,38.8,8.1,28.6,40.8c-6.1,20.4-2,57.1,8.2,79.6c18.4,32.7,12.2,51-28.6,100c-61.3,73.5-65.3,126.6-10.2,140.8c40.8,10.2,77.6,98,55.1,122.5c-22.5,22.4,28.6,87.8,67.4,87.8c42.9,0,122.5,67.4,122.5,102.1c0,10.2-22.4,34.7-51,53.1c-28.6,18.4-51,53.1-51,77.6c0,24.5-18.4,55.1-40.8,69.4c-22.4,12.2-34.7,36.7-28.6,53.1c18.4,49-10.2,77.6-53.1,53.1c-20.4-10.2-87.8-22.5-147-28.6c-130.6-8.1-200-40.8-200-91.9c0-20.4-16.3-51-36.7-71.4c-36.7-30.6-40.8-30.6-69.4,2.1c-18.4,20.4-44.9,75.5-57.1,122.5c-24.5,79.6-30.6,85.7-83.7,73.5c-67.4-12.2-134.7,2-189.8,44.9c-38.8,28.6-38.8,30.6-2,71.4c42.9,49,32.7,63.3-81.6,122.5c-71.4,36.7-79.6,36.7-102.1,6.1c-14.3-18.4-34.7-26.5-46.9-18.4c-12.3,8.2-42.9,4.1-69.4-10.2c-34.7-18.4-49-18.4-67.3,10.2c-14.3,18.4-36.8,32.7-51,32.7c-12.2,0-53.1,20.4-85.7,44.9c-59.2,40.8-65.3,40.8-87.8,8.2c-22.4-30.6-32.6-30.6-69.4-8.2c-24.5,14.3-42.9,36.7-42.9,51c0,30.6-206.2,12.2-228.6-20.4c-18.4-28.6-77.6,20.4-77.6,65.3c0,18.4,26.5,55.1,61.2,83.7c36.7,30.6,53.1,57.1,42.9,71.4c-14.3,16.3-16.3,104.1-4.1,175.5c2,8.2,22.4,18.4,44.9,24.5c36.8,10.2,42.9,22.4,34.7,77.6c-12.2,83.7,22.5,222.5,55.1,222.5c14.3,0,24.5,32.6,26.5,79.6c4.1,69.4-4.1,81.6-47,91.9c-28.6,8.2-83.7,0-124.5-18.4c-55.1-22.5-83.7-24.5-114.3-8.2c-22.5,12.3-44.9,16.3-51.1,12.3c-16.3-18.4-87.8,65.3-87.8,104.1c0,65.3-49,102.1-151.1,112.3c-79.6,8.2-106.1,2-138.8-30.6c-49-49-98-34.7-98,32.7c0,28.6-16.3,63.3-36.7,77.6c-59.2,42.9-169.4,279.6-149,320.5c28.6,53.1,30.6,130.6,6.1,191.9c-14.3,32.6-24.5,77.6-24.5,102.1c-2,53.1-32.7,95.9-100,134.7c-44.9,24.5-53.1,22.5-77.6-10.2c-14.3-20.4-22.5-53.1-16.3-71.4c8.2-24.5-4.1-44.9-30.6-59.2c-36.7-18.4-51-16.3-83.7,12.2c-30.6,26.5-34.7,51-26.5,112.3c12.3,71.4,8.2,79.6-30.6,79.6c-24.5,0-40.8,8.2-32.6,18.4c14.3,24.5-28.6,208.2-53.1,234.7c-26.6,28.6-22.5,87.8,6.1,134.7c20.4,32.6,20.4,49,0,81.6c-12.2,22.4-24.5,53.1-24.5,71.4c0,20.4-20.4,28.6-75.5,24.5c-59.2-4.1-79.6,6.1-98,38.8c-42.9,85.7-75.5,112.3-104.1,87.8c-18.4-14.3-22.5-34.7-10.2-55.1c14.3-26.5,2.1-40.8-63.3-69.4c-77.6-34.7-118.4-34.7-118.4,4.1c0,8.1-28.6,46.9-63.3,83.7c-59.2,63.3-75.5,69.4-175.5,67.4c-87.8-2-118.4-12.2-140.8-46.9c-16.3-22.4-44.9-42.9-61.2-42.9c-36.8,0-136.8,95.9-157.2,149c-6.1,18.4-34.7,34.7-59.2,34.7c-46.9,0-159.2,87.8-159.2,124.5c0,10.2-22.5,14.3-55.1,6.1c-38.8-10.2-61.2-4.1-79.6,22.5c-20.4,28.6-34.7,30.6-55.1,14.3c-20.4-18.4-32.7-18.4-51,0c-38.8,38.8-28.6,98,14.3,98c20.4,0,49,14.3,63.3,30.6c20.4,24.5,18.4,32.6-8.2,42.9c-89.8,34.7,32.7,110.2,128.6,79.6c36.7-10.2,36.7-6.1,12.3,61.2c-12.3,40.8-46.9,102.1-75.5,132.7c-28.6,32.6-57.1,73.5-63.3,91.9c-8.2,16.3-22.5,30.6-34.7,30.6c-10.2,0-20.4,14.3-20.4,30.6c0,16.3-18.4,38.8-38.8,51C4591.8,5011.9,4483.6,5018,4465.2,4997.6z"/></g></g>
</svg>