<?xml version="1.0" encoding="utf-8"?>
<!-- Svg Vector Icons : http://www.onlinewebfonts.com/icon -->
<!DOCTYPE svg PUBLIC "-//W3C//DTD SVG 1.1//EN" "http://www.w3.org/Graphics/SVG/1.1/DTD/svg11.dtd">
<svg version="1.1" xmlns="http://www.w3.org/2000/svg" xmlns:xlink="http://www.w3.org/1999/xlink" x="0px" y="0px" viewBox="0 0 1000 1000" enable-background="new 0 0 1000 1000" xml:space="preserve">
<metadata> Svg Vector Icons : http://www.onlinewebfonts.com/icon </metadata>
<g><g transform="translate(0.000000,511.000000) scale(0.100000,-0.100000)"><path d="M2739.8,5002c-8.2-12.3-38.9-20.5-71.6-20.5c-73.7,0-188.3-63.4-173.9-98.2c4.1-14.3-36.8-71.6-92.1-128.9c-79.8-79.8-112.5-102.3-147.3-94.1c-53.2,14.3-167.8-59.3-151.4-100.3c8.2-20.5-18.4-26.6-126.9-22.5c-122.8,4.1-137.1,8.2-143.2,49.1c-4.1,24.6-18.4,49.1-34.8,55.3c-36.8,14.3-98.2-81.9-81.9-131c10.2-32.7,4.1-40.9-34.8-40.9c-65.5,0-106.4-30.7-92.1-69.6c10.2-26.6-2-30.7-83.9-24.6c-88,8.2-98.2,4.1-122.8-45c-16.4-34.8-18.4-59.4-4.1-73.7c28.6-28.7,24.6-53.2-8.2-53.2c-14.3,0-32.7-24.6-38.9-55.3c-14.3-71.6-8.2-77.8,45-45c53.2,34.8,71.6,14.3,55.3-53.2c-10.2-40.9-22.5-51.2-51.2-40.9c-22.5,6.1-45,2-51.2-8.2c-20.5-30.7,96.2-83.9,159.6-71.6c38.9,6.1,53.2,0,53.2-22.5c0-20.5-20.5-30.7-65.5-30.7c-57.3-2.1-61.4-4.1-30.7-22.5c20.5-12.3,51.2-16.4,67.5-10.2c16.4,6.1,28.6-2.1,28.6-20.5c0-24.6-12.3-30.7-51.2-20.5c-65.5,16.4-65.5-14.3,0-45c63.4-28.7,67.5-86,8.2-86c-36.8,0-38.9-4.1-18.4-30.7c20.5-24.6,20.5-30.7-6.1-30.7c-16.4,0-34.8-16.4-43-34.8c-6.1-20.5-16.4-47.1-22.5-59.3c-6.1-12.3,6.1-28.7,30.7-34.8c26.6-6.1,36.8-20.5,28.7-43c-16.4-40.9,55.3-45,114.6-8.2c32.7,20.5,45,20.5,65.5-8.2c14.3-18.4,45-36.8,67.5-40.9c61.4-10.2,63.4-73.7,4.1-100.3c-36.8-16.4-61.4-16.4-92.1,0c-32.7,16.4-43,14.3-53.2-10.2c-22.5-57.3-12.3-92.1,32.7-128.9c47.1-38.9,36.8-83.9-22.5-83.9c-20.5,0-43-6.1-49.1-14.3c-22.5-22.5,69.6-108.5,116.6-108.5c59.3,0,88-22.5,112.5-86c30.7-79.8,255.8-180.1,435.9-194.4c128.9-10.2,137.1-14.3,157.6-71.6c12.3-34.8,16.4-69.6,10.2-79.8c-28.6-47.1-212.8,0-212.8,53.2c0,16.4-14.3,30.7-30.7,30.7c-18.4,0-30.7-18.4-30.7-49.1c0-40.9-8.2-47.1-45-36.8c-26.6,6.1-67.5,24.6-94.1,40.9c-24.6,16.4-53.2,24.6-61.4,16.4c-6.1-8.2,0-22.5,16.4-32.7c24.6-14.3,20.5-26.6-20.5-71.6c-40.9-43-63.4-51.2-110.5-43c-55.3,12.3-57.3,10.2-43-45c8.2-30.7,18.4-106.4,22.5-167.8c6.1-90,0-118.7-28.6-139.2c-30.7-22.5-30.7-28.7-4.1-45c16.4-10.2,51.2-14.3,75.7-6.1c69.6,16.4,65.5-69.6-4.1-100.3c-28.6-12.3-51.2-34.8-51.2-49.1c0-43-30.7-49.1-98.2-24.6c-81.9,30.7-96.2,14.3-57.3-63.4c38.9-71.6,57.3-69.6,198.5,32.7c106.4,75.7,131,81.9,157.6,34.8c12.3-22.5,22.5-26.6,32.7-10.2c40.9,65.5,257.9-10.2,257.9-90c0-26.6-8.2-53.2-16.4-59.3c-8.2-4.1-18.4-45-20.5-88c-4.1-43-14.3-79.8-24.6-83.9c-12.3-4.1-12.3-22.5,0-47.1c14.3-26.6,14.3-38.9,0-38.9c-10.2,0-20.5-12.3-20.5-26.6c0-14.3-18.4-47.1-40.9-71.6c-22.5-24.6-40.9-53.2-40.9-65.5c0-10.2-8.2-20.5-18.4-20.5c-10.2,0-24.6-26.6-32.7-61.4c-8.2-34.8-22.5-61.4-32.7-61.4c-12.3,0-16.4-8.2-8.2-18.4c6.1-12.3-8.2-30.7-30.7-43c-26.6-14.3-38.9-36.8-32.7-53.2c16.4-43-30.7-110.5-77.8-110.5c-28.6,0-34.8-10.2-24.6-45c6.1-26.6,18.4-85.9,24.6-133c12.3-73.7,6.1-92.1-30.7-124.8c-36.8-26.6-43-47.1-32.7-92.1c8.2-30.7,24.6-55.3,34.8-55.3c12.3,0,16.4-12.3,10.2-26.6c-16.4-45,61.4-120.8,108.5-106.4c28.6,8.2,40.9,4.1,40.9-18.4c0-40.9,36.8-61.4,67.5-38.9c57.3,45,108.5,24.6,143.2-57.3c18.4-43,34.8-94.1,34.8-110.5c0-18.4,22.5-43,51.2-55.3c28.6-12.3,51.2-34.8,51.2-49.1c0-38.9,38.9-55.2,69.6-30.7c32.7,26.6,55.3,8.2,38.9-30.7c-6.1-16.4-2-28.6,10.2-28.6c10.2,0,26.6-22.5,32.7-51.2c8.2-32.8,26.6-51.2,55.3-51.2c22.5,0,45-14.3,53.2-32.8c8.2-24.5,16.4-26.6,28.6-6.1c12.3,20.5,22.5,20.5,45,2.1c32.7-26.6,40.9-126.9,10.2-126.9c-10.2,0-51.2-32.8-92.1-73.7c-69.6-69.6-79.8-73.7-182.1-65.5c-94.1,8.2-151.4,28.6-341.8,122.8c-22.5,10.2-43,16.4-47.1,10.2c-14.3-14.3,38.9-147.4,75.7-190.3c22.5-22.5,38.9-49.1,38.9-61.4c0-24.5,169.8-272.2,190.3-274.2c18.4,0,73.7-57.3,133-141.2c53.2-71.6,73.7-247.6,32.7-261.9c-24.6-8.2-16.4-81.9,14.3-120.7c26.6-32.7,0-51.2-55.3-36.8c-32.7,8.2-53.2,0-73.7-30.7c-32.7-53.2-57.3-55.3-57.3-6.1c0,20.5-14.3,57.3-32.7,81.9c-26.6,38.9-36.8,43-63.4,20.5c-16.4-12.3-61.4-22.5-100.3-20.5c-67.5,6.1-69.6,4.1-69.6-77.8c0-45-10.2-81.9-22.5-81.9c-12.3,0-18.4-28.7-14.3-65.5c6.1-59.4,22.5-75.7,120.7-128.9c65.5-32.8,135.1-77.8,155.5-98.2c22.5-18.4,51.2-34.8,65.5-34.8c14.3,0,36.8-30.7,53.2-67.5c16.4-38.9,43-79.8,59.3-96.2c18.4-14.3,32.7-51.2,32.7-81.9c0-55.3,53.2-122.8,98.2-122.8c28.7,0,106.4-110.5,106.4-151.4c0-24.6,20.5-32.7,69.6-32.7c122.8,0,198.5-24.6,216.9-69.6c8.2-24.6,32.7-57.3,53.2-75.7c45-38.9,204.6-81.9,245.6-65.5c16.4,6.1,28.6-2.1,28.6-20.5c0-36.8,112.6-137.1,155.5-137.1c38.9,0,36.8-20.5-6.1-55.3c-26.6-22.5-28.6-26.6-6.1-20.5c16.4,4.1,51.2-8.2,77.8-28.6c24.6-18.4,63.4-30.7,86-24.6c20.5,6.1,65.5-8.2,96.2-30.7c32.7-22.5,104.4-55.3,159.6-71.6c108.5-30.7,102.3-20.5,110.5-184.2c2-22.5,16.4-34.8,38.9-32.8c18.4,2.1,51.2-2.1,71.6-12.3c26.6-10.2,45-4.1,67.5,28.7c16.4,22.5,43,43,57.3,43c57.3,0,73.7,45,32.7,96.2c-36.8,47.1-36.8,90,4.1,143.2c10.2,12.3,30.7,20.5,45,14.3c14.3-6.2,36.8,14.3,51.2,45c16.4,38.9,34.8,51.2,63.4,43c22.5-6.1,55.3,8.2,79.8,34.8c45,47.1,49.1,71.6,20.5,106.4c-12.3,16.4-6.1,26.6,22.5,34.8c49.1,12.3,55.3,79.8,10.2,116.7c-16.4,14.3-30.7,38.9-30.7,53.2c0,16.4-22.5,32.8-51.2,40.9c-28.7,6.1-45,20.5-38.9,32.8c6.1,10.2,0,30.7-12.3,47.1c-22.5,26.6-12.3,30.7,57.3,30.7c65.5,0,92.1,12.3,124.8,53.2c32.7,43,55.3,51.2,104.4,45c47.1-6.1,61.4-2,53.2,18.4c-18.4,45,59.3,30.7,104.4-18.4c61.4-69.6,73.7-116.7,24.6-104.3c-30.7,8.2-36.8,4.1-26.6-22.5c6.1-18.4,2-32.7-10.2-32.7c-40.9,0-22.5-32.8,20.5-34.8c22.5-2,71.6-26.6,108.5-53.2c47.1-36.9,81.9-47.1,120.7-40.9c38.9,8.2,69.6-2.1,98.2-26.6c40.9-36.8,43-36.8,71.6,0c24.5,36.9,28.6,36.9,40.9,4.1c8.2-18.4,26.6-30.7,40.9-24.6c16.4,6.2,28.6,4.1,30.7-4.1c2-8.2,6.1-51.2,10.2-94.2c2-43,14.3-88,26.6-100.3c10.2-10.2,14.3-32.8,8.2-47.1c-6.1-16.4,2.1-28.6,20.5-28.6c18.4,0,34.8,14.3,38.9,30.7c12.3,59.4,59.4-4.1,75.7-104.3c22.5-143.3,55.3-186.3,128.9-176c47.1,8.2,61.4,0,71.6-34.8c8.2-32.7,26.6-43,81.9-43c65.5,0,71.6-4.1,57.3-45c-8.2-26.6-14.3-63.4-12.3-83.9c0-18.4-8.2-34.8-20.5-34.8c-10.2,0-18.4-20.5-18.4-47.1s-10.2-57.3-24.6-71.6c-18.4-18.4-8.2-24.6,47.1-28.7c96.2-4.1,106.4-6.1,135.1-22.5c12.3-8.2,51.2-12.3,81.9-10.2c73.7,4.1,110.5-16.4,94.1-55.3c-8.2-22.5,4.1-30.7,40.9-30.7c34.8,0,53.2-14.3,63.4-45c10.2-40.9,14.3-43,36.8-14.3c14.3,18.4,55.3,38.9,92.1,45c55.3,10.2,67.5,6.1,79.8-32.7c8.2-24.6,22.5-51.2,34.8-59.4c14.3-8.2,2.1-32.7-30.7-67.5c-43-43-51.2-67.5-43-120.8c10.2-61.4,4.1-69.6-43-81.9c-40.9-10.2-53.2-22.5-45-49.1c8.2-22.5-14.3-63.4-61.4-112.5c-67.6-69.6-71.6-83.9-51.2-128.9c28.6-63.5-2.1-131-59.4-131c-20.5,0-45-10.2-51.2-22.5c-8.2-12.3-26.6-16.4-40.9-10.2c-30.7,10.2-55.3-57.3-36.8-102.3c6.1-16.4,20.5-28.7,34.8-28.7c12.3,0,36.8-26.6,55.2-59.3c22.5-38.9,57.3-63.4,102.3-73.7c38.9-8.2,79.8-24.6,94.1-34.8c16.4-12.3,30.7-6.1,47.1,24.6c12.3,24.6,36.8,38.9,51.2,32.7c14.3-4.1,43,12.3,59.4,40.9c18.4,26.6,40.9,47.1,51.2,43c10.2-2.1,32.7,14.3,51.2,36.8c24.5,32.7,34.8,36.8,55.2,14.3c40.9-38.9,120.7-30.7,120.7,12.3c0,63.4,22.5,65.5,98.2,8.2c81.9-63.5,106.4-65.5,216.9-30.7c43,14.3,85.9,20.5,96.2,14.3c10.2-6.2,24.6,4.1,30.7,20.5c6.2,18.4,34.8,32.7,61.4,32.7c30.7,0,49.1,12.3,49.1,30.7c0,16.4,8.2,30.7,18.4,30.7s34.8,6.1,55.2,14.3c26.6,10.2,32.8,6.1,22.5-20.5c-8.2-22.5,6.1-47.1,38.9-73.7c40.9-32.7,63.5-36.8,104.4-20.5c30.7,10.2,65.5,16.4,79.8,10.2c34.8-12.3,61.4,24.6,79.8,104.4c10.2,47.1,24.6,67.5,53.2,67.5c24.6,0,43,18.4,51.2,55.3c6.2,32.7,18.4,77.8,28.7,100.3c10.2,24.6,14.3,59.4,12.3,77.8c-6.1,43-135.1,176-171.9,176c-22.5,0-26.6,16.4-14.3,77.7c16.4,83.9,24.6,124.9,38.9,223.1c6.1,34.8,22.5,83.9,36.8,108.5c18.4,30.7,20.5,47.1,4.1,57.3c-26.6,16.4-90.1,135.1-90.1,167.8c0,12.3,22.5,30.7,49.1,40.9c28.7,10.2,67.5,43,85.9,71.6c24.6,36.8,40.9,47.1,55.3,32.7c32.8-32.7,55.3-26.6,55.3,10.2c0,26.6,14.3,30.7,75.7,18.4c43-8.2,83.9-22.5,90-34.8c8.2-14.3,18.4-12.3,26.6,2.1c8.2,12.3,32.7,22.5,53.2,22.5c49.1,0,94.1,67.5,112.5,169.9c8.2,40.9,22.5,75.7,32.8,75.7c26.6,0,157.6,137.1,190.3,200.6c16.4,30.7,53.2,69.6,81.9,83.9c51.2,28.7,88,124.9,65.4,163.7c-8.2,10.2-4.1,26.6,8.2,32.8c32.7,20.5-16.4,71.6-69.6,71.6c-53.2,0-135.1,83.9-182.1,188.3c-20.5,40.9-34.8,79.8-34.8,85.9c0,36.9-192.4,196.5-235.3,196.5c-30.7,0-53.2,16.4-61.4,40.9c-8.2,26.6-30.7,40.9-63.4,40.9c-28.7,0-55.3,14.3-63.5,32.7c-6.1,16.4-32.7,40.9-59.3,49.1c-65.5,24.6-112.5,143.3-124.8,317.2c-10.2,131-16.4,147.4-77.8,200.6c-49.1,38.9-71.6,79.8-81.9,143.2c-8.2,47.1-28.7,104.4-43,126.9c-32.8,47.1-36.9,116.7-8.2,145.3c10.2,10.2,22.5,67.5,28.7,126.9c4.1,59.4,14.3,114.6,20.4,120.8c6.2,8.2,12.3,47.1,12.3,90c0,90,18.4,106.4,143.2,120.8c69.6,8.2,92.1,18.4,90.1,45c-2.1,22.5,18.4,36.8,65.5,47.1c67.5,12.3,69.6,14.3,73.7,118.7c0,59.3,4.1,116.6,6.2,126.9c6.1,38.9,57.3,133,71.6,133c24.6,0,45,147.4,24.6,167.8c-10.2,10.2-59.4,28.7-108.5,38.9c-47.1,12.3-98.2,36.8-114.6,55.2c-38.9,51.2-88,165.8-88,212.8c0,20.5-20.5,65.5-43,96.2c-53.2,71.6-34.8,110.5,40.9,94.1c65.4-14.3,94.1,12.3,112.5,104.4c18.4,85.9,75.7,98.2,165.8,36.8c69.6-47.1,77.8-47.1,133-18.4c34.8,18.4,61.4,40.9,61.4,51.2s-30.7,51.2-69.6,90c-51.2,55.3-85.9,73.7-135.1,73.7c-51.2,0-90,24.6-192.4,122.8c-71.6,67.5-139.2,122.8-151.4,122.8c-12.3,0-47.1-22.5-77.8-51.2c-30.7-28.6-75.7-51.2-100.3-51.2c-59.4,0-71.6-14.3-202.6-268.1C7190.8,729,7166.2,718.8,7035.3,860c-49.1,55.2-90.1,118.7-90.1,141.2c0,79.8-47.1,149.4-112.5,161.7c-32.8,8.2-83.9,18.4-112.6,22.5c-67.5,14.3-253.8,32.7-368.4,36.8c-122.8,6.2-143.3,22.5-143.3,118.7c0,124.8-51.2,161.7-225.1,161.7c-133,0-145.3,4.1-163.7,49.1c-10.2,26.6-28.6,55.3-38.9,63.4c-26.6,14.3-30.7,106.4-6.2,120.7c10.2,6.2,57.3,12.3,108.5,14.3c227.1,8.2,296.7,98.2,141.2,180.1c-45,24.6-94.1,43-108.5,43c-22.5,0-137.1,126.9-137.1,151.4c0,4.1,26.6,14.3,61.4,22.5c61.4,14.3,122.8,102.3,122.8,178c0,20.5,22.5,49.1,51.2,61.4c28.7,12.3,51.2,32.7,51.2,43c0,36.8-196.4,192.4-231.2,182.1c-8.2-2.1-49.1,10.2-90,26.6c-40.9,18.4-88,26.6-102.3,22.5c-69.6-26.6-190.3,92.1-190.3,186.2c0,16.4-6.1,26.6-14.3,22.5c-10.2-4.1-40.9-20.5-73.7-34.8c-49.1-26.6-59.4-24.6-102.3,12.3c-24.6,22.5-55.3,38.9-67.5,32.7c-24.6-8.2-133,92.1-186.2,169.9c-16.4,26.6-47.1,53.2-69.6,59.3c-24.6,8.2-38.9,32.7-38.9,61.4c0,55.3-53.2,92.1-131,92.1c-32.7,0-53.2,12.3-53.2,30.7c0,16.4,8.2,30.7,18.4,30.7c30.7,0,83.9,61.4,83.9,94.1c0,16.4-24.6,55.2-53.2,83.9c-51.2,51.2-53.2,59.3-28.6,116.7c14.3,34.8,32.7,124.8,40.9,198.5s20.5,143.2,26.6,155.5c8.2,12.3,0,28.7-18.4,34.8c-47.1,18.4-49.1,16.4-49.1-30.7c0-34.8-10.2-40.9-75.7-34.8c-59.3,4.1-79.8,16.4-85.9,47.1c-4.1,22.5-18.4,49.1-34.8,57.3c-16.4,8.2-28.6,34.8-28.6,55.3c0,20.5-32.7,63.4-71.6,94.1c-38.9,28.7-71.6,71.6-71.6,92.1c0,43-22.5,49.1-55.3,16.4c-32.7-32.7-61.4-8.2-77.8,63.4c-14.3,67.5-61.4,102.3-139.2,102.3c-61.4,0-108.5,51.2-126.9,143.3c-16.4,71.6-145.3,243.5-186.2,245.6c-12.3,0-38.9,18.4-59.3,40.9c-26.6,28.6-51.2,36.8-88,26.6c-36.8-8.2-59.4-2-79.8,26.6c-26.6,36.8-30.7,36.8-55.2,4.1c-32.7-45-94.1-49.1-94.1-6.1c0,63.4-169.8,34.8-333.6-53.2c-45-24.6-112.6-6.1-167.8,43C2848.3,4991.7,2754.1,5026.5,2739.8,5002z"/></g></g>
</svg>